# xmcd CD database file
#
# Track frame offsets:
#	150
#	38097
#	63710
#	82207
#	96760
#	122955
#	160050
#	181282
#	220605
#	251877
#	265527
#
# Disc length: 3901 seconds
#
# Revision: 0
# Processed by: cddbd v1.5.1PL2 Copyright (c) Steve Scherf et al.
# Submitted via: CDex 1.51
#
DISCID=990f3b0b
DTITLE=Hugh Fraser - Red and Blue
DYEAR=1995
DGENRE=Jazz
TTITLE0=Thank You Very Much
TTITLE1=The Key of Love
TTITLE2=Mr. Ryga
TTITLE3=Memoria e Fado
TTITLE4=Like the River
TTITLE5=Precious
TTITLE6=Lullaby
TTITLE7=Salsa Nova
TTITLE8=Last One
TTITLE9=Herbildoodlyu
TTITLE10=Fairy Tales
EXTD=YEAR: 1995
EXTT0=
EXTT1=
EXTT2=
EXTT3=
EXTT4=
EXTT5=
EXTT6=
EXTT7=
EXTT8=
EXTT9=
EXTT10=
PLAYORDER=
